<?xml version="1.0" encoding="utf-8"?>
<!-- Generator: Adobe Illustrator 17.0.0, SVG Export Plug-In . SVG Version: 6.00 Build 0)  -->
<!DOCTYPE svg PUBLIC "-//W3C//DTD SVG 1.1//EN" "http://www.w3.org/Graphics/SVG/1.1/DTD/svg11.dtd">
<svg version="1.1" id="图层_1" xmlns="http://www.w3.org/2000/svg" xmlns:xlink="http://www.w3.org/1999/xlink" x="0px" y="0px"
	 width="467.991px" height="45.003px" viewBox="0 0 467.991 45.003" enable-background="new 0 0 467.991 45.003"
	 xml:space="preserve">
<g>
	<path fill="#F0B418" d="M0,7.286h7.376V0H0V7.286z"/>
	<path fill="#F0B418" d="M0,44.338h7.376V14.572H0V44.338z"/>
	<path fill="#F0B418" d="M29.354,22.163c0-8.216,6.744-14.876,15.062-14.876c8.318,0,15.061,6.66,15.061,14.876h7.376
		c0-12.239-10.045-22.161-22.438-22.161c-12.391,0-22.436,9.922-22.436,22.161c0,12.241,10.045,22.162,22.436,22.162h0.001V37.04
		C36.098,37.04,29.354,30.379,29.354,22.163z"/>
	<path fill="#F0B418" d="M103.891,0.001c-12.391,0-22.436,9.922-22.436,22.161c0,12.242,10.045,22.164,22.436,22.164
		c12.392,0,22.437-9.922,22.437-22.164C126.329,9.923,116.284,0.001,103.891,0.001z M103.893,37.04
		c-8.318,0-15.061-6.662-15.061-14.878c0-8.215,6.743-14.876,15.061-14.876c8.318,0,15.061,6.661,15.061,14.876
		C118.953,30.378,112.211,37.04,103.893,37.04z"/>
	<path fill="#F0B418" d="M163.369,0.001c-12.391,0-22.437,9.922-22.437,22.161v0.003v0.001c0,12.239,10.046,22.161,22.437,22.161
		c12.391,0,22.437-9.922,22.437-22.161c0-1.148-0.088-2.276-0.259-3.377C183.903,8.152,174.599,0.001,163.369,0.001z M163.369,37.04
		c-8.318,0-15.061-6.662-15.061-14.878c0-8.215,6.743-14.876,15.061-14.876s15.061,6.661,15.061,14.876
		C178.43,30.378,171.687,37.04,163.369,37.04z"/>
	<path fill="#F0B418" d="M43.931,26.828l18.306,18.174l5.228-5.139L49.161,21.691L43.931,26.828z"/>
	<path fill="#F0B418" d="M236.641,31.356v0.197l-0.106-0.143L215.773,1.473h-6.661V42.73h6.277V12.693l-0.005-0.392l0.225,0.318
		l20.708,30.111h6.649V1.473h-6.323V31.356z"/>
	<path fill="#F0B418" d="M283.035,27.505c0-0.863-0.068-1.716-0.195-2.537v-0.001c-1.245-8.05-8.368-14.122-16.568-14.122
		c-9.301,0-16.868,7.474-16.868,16.66c0,9.186,7.566,16.657,16.868,16.657c6.755,0,12.48-3.234,15.56-7.815l-5.415-3.607
		c-1.876,3.357-5.996,5.637-10.145,5.637c-5.196,0-9.551-3.575-10.702-8.363h27.349l0.13-1.539l-0.011-0.033
		C283.037,28.133,283.035,27.823,283.035,27.505z M255.616,24.818c1.215-4.699,5.525-8.188,10.656-8.188
		c5.128,0,9.437,3.489,10.652,8.188H255.616z"/>
	<path fill="#F0B418" d="M305.563,10.797c-9.327,0-16.914,7.495-16.914,16.709c0,9.212,7.586,16.705,16.914,16.705
		c9.327,0,16.914-7.494,16.914-16.705c0-0.854-0.066-1.71-0.194-2.545C321.033,16.887,313.846,10.797,305.563,10.797z
		 M305.563,38.329c-6.044,0-10.959-4.855-10.959-10.825c0-5.97,4.915-10.826,10.959-10.826c6.044,0,10.959,4.857,10.959,10.826
		C316.522,33.474,311.607,38.329,305.563,38.329z"/>
	<path fill="#F0B418" d="M459.802,10.972H353.477c-4.514,0-8.188,3.626-8.188,8.086v17.341c0,4.461,3.673,8.09,8.188,8.09h106.325
		c4.516,0,8.189-3.63,8.189-8.09V19.058C467.991,14.597,464.318,10.972,459.802,10.972z M466.21,36.399
		c0,3.492-2.874,6.331-6.408,6.331H353.477c-3.533,0-6.407-2.839-6.407-6.331V19.058c0-3.488,2.874-6.328,6.407-6.328h106.325
		c3.534,0,6.408,2.84,6.408,6.328V36.399z"/>
	<path fill="#F0B418" d="M386.755,25.177l0.473-4.248h12.391v-2.403h-14.773c0,0-0.628,6.194-1.082,10.112
		c8.2-2.803,14.065-1.222,14.142,2.665c0.065,3.187-2.242,4.506-6.373,4.661c-3.416,0.129-5.77-0.605-8.082-1.781v3.081
		c2.288,1.161,6.205,1.414,7.951,1.373c6.896-0.165,9.35-3.602,9.35-7.334C400.751,25.681,395.131,23.574,386.755,25.177z"/>
	<path fill="#F0B418" d="M408.801,25.177l0.473-4.248h12.391v-2.403h-14.773c0,0-0.629,6.194-1.082,10.112
		c8.2-2.803,14.065-1.222,14.142,2.665c0.065,3.187-2.242,4.506-6.373,4.661c-3.416,0.129-5.77-0.605-8.082-1.781v3.081
		c2.288,1.161,6.205,1.414,7.952,1.373c6.894-0.165,9.35-3.602,9.35-7.334C422.798,25.681,417.177,23.574,408.801,25.177z"/>
	<path fill="#F0B418" d="M375.271,27.264c0.683-0.459,1.204-0.993,1.564-1.6c0.358-0.607,0.538-1.271,0.538-1.989
		c0-1.6-0.73-2.874-2.192-3.822c-1.462-0.949-3.445-1.422-5.949-1.422c-2.502,0-4.485,0.474-5.946,1.422
		c-1.462,0.949-2.192,2.222-2.192,3.822c0,0.718,0.178,1.382,0.538,1.989c0.36,0.607,0.88,1.141,1.563,1.6
		c-1.127,0.534-1.976,1.224-2.551,2.074c-0.576,0.85-0.863,1.845-0.863,2.985c0,2.008,0.848,3.612,2.543,4.808
		c1.694,1.197,3.998,1.794,6.908,1.794c2.9,0,5.194-0.601,6.882-1.804c1.69-1.203,2.536-2.815,2.536-4.835
		c0-1.141-0.281-2.125-0.837-2.949C377.257,28.514,376.409,27.822,375.271,27.264z M365.201,21.573
		c0.987-0.52,2.332-0.781,4.032-0.781c1.69,0,3.038,0.257,4.045,0.772c1.006,0.515,1.509,1.181,1.509,2
		c0,0.855-0.479,1.516-1.439,1.98c-0.958,0.466-2.328,0.698-4.115,0.698c-1.749,0-3.106-0.23-4.069-0.689
		c-0.964-0.458-1.447-1.097-1.447-1.916C363.718,22.782,364.212,22.094,365.201,21.573z M374.23,35.383
		c-1.234,0.763-2.9,1.144-4.997,1.144c-2.106,0-3.782-0.384-5.021-1.153c-1.241-0.769-1.861-1.785-1.861-3.05
		c0-1.29,0.535-2.226,1.6-2.808c1.067-0.583,2.828-0.874,5.283-0.874c2.457,0,4.212,0.288,5.266,0.864
		c1.054,0.577,1.581,1.516,1.581,2.818C376.08,33.599,375.462,34.62,374.23,35.383z"/>
	<path fill="#F0B418" d="M436.75,27.452h-4.326v-0.495v-1.876h6.195v-1.765h-1.479v-5.843h-2.064v5.843h-2.652v-5.32h-2.064v8.656
		c0,2.206-0.03,3.885-0.169,5.404c-0.195,2.011-0.53,3.722-1.172,6.035h2.121c0.558-2.036,0.893-3.747,1.09-5.73
		c0.083-0.965,0.137-1.988,0.167-3.145h2.984v8.876h2.067V28.14C437.448,27.731,437.167,27.452,436.75,27.452z"/>
	<path fill="#F0B418" d="M448.833,32.692c1.677-2.535,2.765-5.378,3.35-8.603c0.084-0.409-0.137-0.688-0.612-0.688h-9.212v-3.059
		h4.746c1.898,0,3.822-0.225,5.667-0.748v-1.763c-1.957,0.581-3.63,0.747-5.667,0.747h-6.867v7.665c0,2.286-0.11,4.158-0.419,5.954
		c-0.306,1.929-0.809,3.747-1.619,5.928h2.318c0.669-1.904,1.145-3.726,1.422-5.625c0.282-1.849,0.418-3.753,0.418-5.927v-1.407
		h7.565c-0.447,2.01-1.173,3.912-2.343,5.762c-0.893-1.354-1.65-2.815-2.318-4.414h-2.066c0.864,2.181,1.898,4.163,3.182,6.066
		c-1.284,1.625-2.904,3.251-5.024,4.909l2.343,0.636c1.536-1.216,2.849-2.431,3.936-3.806c1.005,1.295,2.15,2.537,3.488,3.806
		l2.374-0.666C451.571,35.806,450.063,34.292,448.833,32.692z"/>
</g>
</svg>
