<svg id="图层_1" data-name="图层 1" xmlns="http://www.w3.org/2000/svg" viewBox="0 0 152.41 61.77"><title>S5系列型号字及slogan</title><path d="M.7,57.85V47.54a155.07,155.07,0,0,0,34.89,4.19c17.21,0,21-2.1,21-7.11,0-4.2-3.81-5.39-11-6.66L20.37,33.58C8.86,31.57,0,28.74,0,17.06,0,5.84,7.14.09,34.23.09c13.23,0,25.1,1.37,31.89,2.83V13.14a190.66,190.66,0,0,0-32-2.92c-19.3,0-21.84,2.37-21.84,6.66s4,5.38,11.05,6.66l25.2,4.29C61.68,30,69,33.76,69,44.62c0,12-8.6,17.24-34,17.24A138.57,138.57,0,0,1,.7,57.85Z" transform="translate(0.02 -0.09)"/><path d="M81.17,58.49v-10a174.17,174.17,0,0,0,33,3.56c19.85,0,25.56-2.47,25.56-9.58,0-7.39-5.71-9.4-24-9.4-10,0-16.76.45-26.55,1-5.88.37-7.7-2.1-7-7.11l4-25.55h61.61v9.94H95.49L93.22,24.82c6.89-.64,16.13-1.28,25.83-1.28,19.57,0,33.34,3,33.34,18.61,0,14.78-13.23,19.71-38,19.71C99.75,61.86,86.43,59.85,81.17,58.49Z" transform="translate(0.02 -0.09)"/></svg>